<svg xmlns="http://www.w3.org/2000/svg" xmlns:xlink="http://www.w3.org/1999/xlink" width="500" zoomAndPan="magnify" viewBox="0 0 375 374.999991" height="500" preserveAspectRatio="xMidYMid meet" version="1.0"><defs><clipPath id="59ff8718b6"><path d="M 152.8125 112.644531 L 222.554688 112.644531 L 222.554688 182.148438 L 152.8125 182.148438 Z M 152.8125 112.644531 " clip-rule="nonzero"/></clipPath><clipPath id="73aab4cee7"><path d="M 166.316406 115.417969 L 222.554688 115.417969 L 222.554688 182.148438 L 166.316406 182.148438 Z M 166.316406 115.417969 " clip-rule="nonzero"/></clipPath></defs><path fill="#4d4d4d" d="M 193.492188 255.574219 L 190.515625 260.476562 C 189.371094 262.355469 186.628906 262.355469 185.488281 260.476562 L 182.511719 255.574219 L 182.511719 177.664062 L 193.492188 177.664062 L 193.492188 255.574219 " fill-opacity="1" fill-rule="nonzero"/><path fill="#808080" d="M 185.488281 260.476562 C 185.925781 261.195312 186.601562 261.636719 187.332031 261.804688 L 187.332031 177.664062 L 184.304688 177.664062 L 184.304688 258.523438 L 185.488281 260.476562 " fill-opacity="1" fill-rule="nonzero"/><path fill="#1a1a1a" d="M 190.738281 177.664062 L 190.738281 260.105469 L 193.492188 255.574219 L 193.492188 177.664062 L 190.738281 177.664062 " fill-opacity="1" fill-rule="nonzero"/><g clip-path="url(#59ff8718b6)"><path fill="#f12200" d="M 222.554688 147.328125 C 222.554688 166.484375 206.941406 182.011719 187.683594 182.011719 C 168.425781 182.011719 152.8125 166.484375 152.8125 147.328125 C 152.8125 128.171875 168.425781 112.644531 187.683594 112.644531 C 206.941406 112.644531 222.554688 128.171875 222.554688 147.328125 " fill-opacity="1" fill-rule="nonzero"/></g><g clip-path="url(#73aab4cee7)"><path fill="#9e1600" d="M 201.582031 115.527344 C 209.851562 121.867188 215.199219 131.792969 215.199219 142.980469 C 215.199219 162.136719 199.589844 177.664062 180.328125 177.664062 C 175.386719 177.664062 170.691406 176.628906 166.433594 174.78125 C 172.320312 179.296875 179.675781 182.011719 187.683594 182.011719 C 206.941406 182.011719 222.554688 166.484375 222.554688 147.328125 C 222.554688 133.089844 213.917969 120.871094 201.582031 115.527344 " fill-opacity="1" fill-rule="nonzero"/></g><path fill="#ffd6cf" d="M 189.800781 135.519531 C 189.800781 142.835938 183.835938 148.769531 176.480469 148.769531 C 169.121094 148.769531 163.15625 142.835938 163.15625 135.519531 C 163.15625 128.199219 169.121094 122.269531 176.480469 122.269531 C 183.835938 122.269531 189.800781 128.199219 189.800781 135.519531 " fill-opacity="1" fill-rule="nonzero"/></svg>